<svg xmlns="http://www.w3.org/2000/svg" width="60" height="60" viewBox="0 0 60 60"><g transform="translate(-612 -437)"><g transform="translate(612 437)" fill="#fff" stroke="#e1e1e1" stroke-width="1"><circle cx="30" cy="30" r="30" stroke="none"/><circle cx="30" cy="30" r="29.5" fill="none"/></g><g transform="translate(136 -119)"><path d="M21.875,10.625A3.126,3.126,0,0,1,25,7.5V6.25C25,1.25,23.75,0,18.75,0H6.25C1.25,0,0,1.25,0,6.25v.625A3.126,3.126,0,0,1,3.125,10,3.126,3.126,0,0,1,0,13.125v.625C0,18.75,1.25,20,6.25,20h12.5c5,0,6.25-1.25,6.25-6.25A3.126,3.126,0,0,1,21.875,10.625Z" transform="translate(494 576)" fill="none" stroke="#777" stroke-linecap="round" stroke-linejoin="round" stroke-width="2"/><path d="M0,0V20" transform="translate(504 576)" fill="none" stroke="#777" stroke-linecap="round" stroke-linejoin="round" stroke-width="2" stroke-dasharray="4 4"/></g></g></svg>