<svg xmlns="http://www.w3.org/2000/svg" width="60" height="60" viewBox="0 0 60 60"><g transform="translate(-740 -359)"><g transform="translate(740 359)" fill="#fff" stroke="#e1e1e1" stroke-width="1"><circle cx="30" cy="30" r="30" stroke="none"/><circle cx="30" cy="30" r="29.5" fill="none"/></g><g transform="translate(584.5 59)"><path d="M16,0V4.642c0,3.914-3.582,7.088-8,7.088S0,8.556,0,4.642V0C0,3.914,3.582,6.712,8,6.712S16,3.914,16,0Z" transform="translate(177.5 331.27)" fill="none" stroke="#777" stroke-linecap="round" stroke-linejoin="round" stroke-width="2"/><path d="M16,7.088a5.987,5.987,0,0,1-.849,3.1A8.178,8.178,0,0,1,8,13.8,8.178,8.178,0,0,1,.849,10.187,5.987,5.987,0,0,1,0,7.088,6.692,6.692,0,0,1,2.338,2.083,8.485,8.485,0,0,1,8,0a8.54,8.54,0,0,1,5.662,2.07A6.739,6.739,0,0,1,16,7.088Z" transform="translate(177.5 318)" fill="none" stroke="#777" stroke-linecap="round" stroke-linejoin="round" stroke-width="2"/><path d="M16,7.056V13.3c0,3.9-3.582,6.681-8,6.681S0,17.2,0,13.3V7.056C0,3.16,3.582,0,8,0a8.563,8.563,0,0,1,5.662,2.061A6.7,6.7,0,0,1,16,7.056Z" transform="translate(177.5 318)" fill="none" stroke="#777" stroke-linecap="round" stroke-linejoin="round" stroke-width="2"/></g></g></svg>