<svg xmlns="http://www.w3.org/2000/svg" width="60" height="60" viewBox="0 0 60 60"><g transform="translate(-860 -359)"><g transform="translate(860 359)" fill="#fff" stroke="#e1e1e1" stroke-width="1"><circle cx="30" cy="30" r="30" stroke="none"/><circle cx="30" cy="30" r="29.5" fill="none"/></g><g transform="translate(384 -132.504)"><path d="M0,0H25" transform="translate(494 517.684)" fill="none" stroke="#777" stroke-linecap="round" stroke-linejoin="round" stroke-width="2"/><path d="M0,0H2" transform="translate(499.111 527.572)" fill="none" stroke="#777" stroke-linecap="round" stroke-linejoin="round" stroke-width="2"/><path d="M0,0H4" transform="translate(505.156 527.572)" fill="none" stroke="#777" stroke-linecap="round" stroke-linejoin="round" stroke-width="2"/><path d="M5.55,0H19.437C23.887,0,25,1.088,25,5.426V15.574C25,19.912,23.887,21,19.45,21H5.55C1.112,21.012,0,19.925,0,15.586V5.426C0,1.088,1.112,0,5.55,0Z" transform="translate(494 511.504)" fill="none" stroke="#777" stroke-linecap="round" stroke-linejoin="round" stroke-width="2"/></g></g></svg>