<svg xmlns="http://www.w3.org/2000/svg" width="60" height="60" viewBox="0 0 60 60"><g transform="translate(-1050 -359)"><g transform="translate(1050 359)" fill="#fff" stroke="#e1e1e1" stroke-width="1"><circle cx="30" cy="30" r="30" stroke="none"/><circle cx="30" cy="30" r="29.5" fill="none"/></g><g transform="translate(-24 60)"><path d="M7.8,20.339H7.2c-4.8,0-7.2-1.2-7.2-7.178V7.178Q0,0,7.2,0h9.6Q24,0,24,7.178v5.982q0,7.178-7.2,7.178h-.6a1.218,1.218,0,0,0-.96.479l-1.8,2.393a1.708,1.708,0,0,1-2.88,0l-1.8-2.393A1.358,1.358,0,0,0,7.8,20.339Z" transform="translate(1092 317)" fill="none" stroke="#777" stroke-linecap="round" stroke-linejoin="round" stroke-width="2"/><path d="M0,0H10" transform="translate(1099 324.178)" fill="none" stroke="#777" stroke-linecap="round" stroke-linejoin="round" stroke-width="2"/><path d="M0,0H6" transform="translate(1098.429 330.16)" fill="none" stroke="#777" stroke-linecap="round" stroke-linejoin="round" stroke-width="2"/></g></g></svg>