<svg xmlns="http://www.w3.org/2000/svg" width="60" height="60" viewBox="0 0 60 60"><g transform="translate(-1170 -359)"><g transform="translate(1170 359)" fill="#fff" stroke="#e1e1e1" stroke-width="1"><circle cx="30" cy="30" r="30" stroke="none"/><circle cx="30" cy="30" r="29.5" fill="none"/></g><path d="M14.073,1.733l2.112,4.258a2.609,2.609,0,0,0,1.7,1.27l3.828.641c2.448.411,3.024,2.2,1.26,3.968L20,14.87a2.641,2.641,0,0,0-.624,2.189l.852,3.714c.672,2.939-.876,4.077-3.456,2.54l-3.588-2.141a2.575,2.575,0,0,0-2.376,0L7.222,23.313c-2.568,1.536-4.128.387-3.456-2.54l.852-3.714a2.641,2.641,0,0,0-.624-2.189l-2.976-3C-.733,10.1-.169,8.313,2.278,7.9l3.828-.641A2.615,2.615,0,0,0,7.8,5.991L9.91,1.733C11.061-.578,12.933-.578,14.073,1.733Z" transform="translate(1188 377)" fill="none" stroke="#777" stroke-linecap="round" stroke-linejoin="round" stroke-width="2"/></g></svg>